<svg id="Layer_1" data-name="Layer 1" xmlns="http://www.w3.org/2000/svg" viewBox="0 0 40.65 10.96">
  <title>acme_logo</title>
  <g>
    <path d="M6.88,8.83H3.36l-0.62,2H0L3.91,0.15H6.33l3.94,10.66H7.51ZM4,6.84H6.27L5.12,3.14Z"/>
    <path d="M18.92,7.21a3.89,3.89,0,0,1-.6,2,3.62,3.62,0,0,1-1.54,1.32,5.25,5.25,0,0,1-2.27.47A4.19,4.19,0,0,1,11.2,9.59,5.65,5.65,0,0,1,10,5.73V5.2a6.45,6.45,0,0,1,.55-2.74A4.13,4.13,0,0,1,12.11.64,4.38,4.38,0,0,1,14.48,0,4.59,4.59,0,0,1,17.6,1a4,4,0,0,1,1.34,2.82H16.38a1.91,1.91,0,0,0-.49-1.4A2,2,0,0,0,14.48,2a1.54,1.54,0,0,0-1.41.72A4.61,4.61,0,0,0,12.61,5V5.78A5.1,5.1,0,0,0,13,8.22,1.57,1.57,0,0,0,14.51,9a2,2,0,0,0,1.35-.42,1.77,1.77,0,0,0,.5-1.33h2.56Z"/>
    <path d="M23.52,0.15L25.9,7.57l2.37-7.42h3.38V10.82H29.07V8.33l0.25-5.1-2.58,7.59H25l-2.59-7.6,0.25,5.1v2.49H20.14V0.15h3.38Z"/>
    <path d="M39.9,6.29h-4V8.84h4.78v2H33.29V0.15h7.36v2H35.86V4.39h4v1.9Z"/>
  </g>
</svg>
